<?xml version="1.0" standalone="no"?>
<!DOCTYPE svg PUBLIC "-//W3C//DTD SVG 20010904//EN"
 "http://www.w3.org/TR/2001/REC-SVG-20010904/DTD/svg10.dtd">
<svg version="1.0" xmlns="http://www.w3.org/2000/svg"
 width="1828.000000pt" height="567.000000pt" viewBox="0 0 1828.000000 567.000000"
 preserveAspectRatio="xMidYMid meet">

<g transform="translate(0.000000,567.000000) scale(0.100000,-0.100000)"
fill="#0369a1" stroke="none">
<path d="M3030 5654 c-129 -25 -180 -38 -247 -63 -112 -44 -1737 -983 -1837
-1062 -101 -80 -195 -199 -256 -324 -62 -126 -88 -221 -99 -360 -5 -60 -7
-535 -6 -1055 2 -851 4 -953 20 -1025 53 -248 186 -453 395 -606 54 -40 1667
-968 1740 -1002 36 -16 108 -41 160 -55 81 -21 117 -25 240 -25 124 0 159 4
242 26 54 14 133 43 175 64 113 56 1657 948 1728 998 137 97 271 268 336 430
70 177 69 145 69 1270 0 1123 2 1089 -69 1270 -60 156 -197 331 -336 430 -74
53 -1679 979 -1755 1013 -99 44 -235 73 -360 77 -63 2 -126 2 -140 -1z m539
-916 c1175 -674 1859 -1072 1881 -1094 17 -17 21 -27 13 -35 -6 -6 -98 -64
-204 -130 l-193 -119 -26 24 c-14 13 -131 84 -260 158 -129 75 -544 314 -922
532 -506 291 -696 396 -719 396 -23 0 -274 -140 -963 -536 -512 -295 -939
-545 -948 -555 -16 -19 -23 -15 -222 108 -193 119 -205 128 -193 147 11 16
718 429 1697 991 118 67 298 171 399 229 159 91 191 106 230 106 39 0 85 -24
430 -222z m-129 -944 c893 -513 1228 -709 1250 -730 31 -31 38 -25 -175 -156
-229 -141 -212 -133 -233 -109 -9 11 -183 116 -387 232 -203 117 -450 259
-548 316 -116 67 -189 103 -208 103 -19 0 -96 -39 -222 -111 -105 -61 -349
-201 -542 -312 -192 -110 -362 -211 -376 -224 l-26 -24 -207 127 -207 128 33
31 c31 30 167 109 1112 652 354 203 393 223 435 223 42 0 74 -16 301 -146z
m91 -1054 c453 -261 498 -289 508 -309 8 -14 -22 -36 -197 -144 l-206 -127
-26 24 c-39 36 -446 266 -471 266 -27 0 -457 -244 -479 -272 -15 -18 -24 -14
-220 107 -113 69 -206 129 -208 133 -6 17 53 56 308 203 146 84 330 190 410
237 202 116 161 125 581 -118z m-1048 -654 l157 -90 0 -181 c0 -167 2 -184 20
-208 25 -32 449 -277 479 -277 24 0 433 230 469 265 14 13 26 38 29 63 l6 42
-196 0 c-194 0 -195 0 -248 28 -39 20 -62 41 -84 77 -28 45 -30 56 -34 162
l-3 113 419 0 420 0 44 -23 c29 -16 54 -40 74 -72 l30 -48 3 -251 c4 -272 -1
-306 -45 -348 -16 -14 -210 -131 -432 -259 -363 -209 -410 -233 -451 -233 -41
-1 -69 12 -266 125 -120 70 -308 178 -417 240 -128 73 -207 125 -220 144 -22
29 -22 38 -25 458 l-3 429 58 -34 c32 -18 129 -73 216 -122z"/>
<path d="M7280 4476 c-193 -30 -367 -100 -509 -206 -195 -145 -330 -364 -387
-624 -22 -97 -29 -330 -15 -439 64 -482 395 -830 869 -912 109 -19 326 -19
434 0 412 72 707 331 808 710 13 50 23 125 27 200 5 113 4 123 -19 165 -15 28
-39 53 -64 67 -38 22 -45 23 -413 23 -362 0 -374 -1 -411 -21 -106 -60 -106
-231 0 -293 32 -19 54 -21 288 -24 208 -3 252 -6 252 -17 0 -22 -38 -120 -68
-173 -14 -26 -58 -79 -96 -118 -55 -55 -91 -81 -156 -112 -132 -63 -192 -76
-360 -76 -169 -1 -229 12 -360 76 -145 70 -277 219 -331 375 -33 93 -49 197
-49 309 0 315 143 564 393 683 107 51 201 71 336 72 251 1 403 -63 573 -240
84 -87 108 -98 195 -88 57 6 92 31 121 87 45 90 21 162 -95 278 -151 151 -331
246 -545 287 -114 22 -313 27 -418 11z"/>
<path d="M12165 4479 c-193 -26 -366 -93 -480 -186 -169 -138 -271 -331 -310
-589 -22 -149 -22 -1248 0 -1301 30 -72 80 -106 160 -106 70 -1 120 25 153 82
l27 46 3 258 4 257 604 0 604 0 0 -250 c0 -203 3 -258 15 -287 30 -72 80 -106
160 -106 66 -1 120 26 153 76 l27 41 0 615 c0 467 -3 634 -13 691 -75 423
-308 668 -706 745 -101 20 -308 27 -401 14z m349 -354 c142 -30 258 -108 323
-216 18 -30 44 -94 58 -144 25 -83 27 -106 28 -285 l2 -195 -603 -3 -604 -2 4
207 c5 225 14 274 68 387 57 121 189 218 340 250 87 19 297 20 384 1z"/>
<path d="M17119 4476 c-109 -16 -255 -62 -340 -107 -77 -41 -179 -127 -235
-197 -61 -77 -138 -238 -163 -342 -37 -153 -42 -277 -39 -860 l3 -555 23 -37
c83 -133 288 -100 321 52 6 29 11 152 11 280 l0 230 605 0 605 0 0 -242 c0
-147 4 -259 11 -283 23 -82 121 -136 211 -116 56 13 89 39 116 91 l22 44 0
588 c0 620 -4 682 -49 838 -78 269 -237 451 -481 551 -160 65 -426 93 -621 65z
m375 -351 c202 -43 327 -161 386 -365 18 -62 23 -110 27 -277 l6 -203 -607 0
-606 0 0 168 c0 92 5 195 10 230 40 244 178 399 400 446 87 19 297 20 384 1z"/>
<path d="M8822 4463 c-37 -7 -99 -73 -111 -120 -8 -30 -11 -308 -9 -986 l3
-943 27 -41 c33 -50 87 -77 153 -76 80 0 130 34 160 106 13 32 15 153 15 975
0 673 -3 949 -11 973 -30 89 -118 133 -227 112z"/>
<path d="M15819 4447 c-31 -16 -51 -36 -66 -67 l-23 -44 0 -952 c0 -651 3
-962 11 -981 24 -65 87 -106 164 -106 64 -1 113 23 145 70 l25 37 0 980 0 981
-24 34 c-49 68 -152 90 -232 48z"/>
<path d="M9455 4436 c-37 -17 -80 -62 -94 -99 -8 -19 -11 -328 -11 -966 0
-786 2 -944 14 -972 65 -154 300 -132 335 31 7 31 11 175 11 365 l0 315 273 0
273 0 30 -32 c17 -18 120 -145 230 -282 109 -137 237 -296 284 -354 98 -122
130 -145 204 -145 77 0 140 41 165 106 16 42 13 118 -7 154 -16 28 -113 150
-376 465 -54 66 -97 120 -95 122 2 1 24 8 49 16 203 62 351 215 406 420 25 91
25 320 1 410 -63 235 -230 389 -479 440 -85 18 -138 20 -638 19 -433 0 -551
-3 -575 -13z m1124 -342 c138 -31 201 -98 223 -237 23 -148 -18 -288 -100
-342 -90 -59 -90 -59 -559 -63 l-433 -3 0 330 0 331 401 0 c326 0 413 -3 468
-16z"/>
<path d="M13645 4431 c-50 -23 -82 -66 -95 -128 -7 -31 -10 -362 -8 -953 3
-989 0 -931 60 -987 55 -51 70 -53 472 -53 510 0 643 16 839 100 236 102 382
238 487 455 73 149 101 266 107 455 13 357 -73 615 -272 816 -125 127 -240
196 -419 253 -170 55 -244 61 -711 61 -386 0 -423 -2 -460 -19z m1000 -349
c135 -37 219 -85 311 -176 128 -127 180 -255 191 -466 13 -261 -44 -438 -191
-586 -77 -77 -185 -138 -301 -169 -84 -23 -314 -36 -550 -33 l-200 3 -3 728
-2 729 332 -4 c303 -4 340 -6 413 -26z"/>
<path d="M6552 1852 c-140 -50 -219 -179 -210 -341 8 -136 73 -237 187 -289
46 -21 72 -25 147 -26 82 0 96 2 157 32 69 34 117 80 117 113 0 30 -22 23 -65
-21 -58 -59 -115 -83 -205 -83 -177 -1 -290 114 -290 292 0 84 13 128 53 187
92 133 307 154 433 41 46 -42 74 -50 74 -23 0 19 -70 82 -120 107 -63 32 -203
37 -278 11z"/>
<path d="M7260 1853 c-140 -49 -212 -158 -213 -324 -1 -78 2 -92 31 -152 50
-102 124 -157 239 -178 106 -20 216 9 290 75 116 104 144 278 70 427 -37 73
-100 127 -179 153 -63 20 -179 20 -238 -1z m234 -44 c222 -83 237 -433 24
-543 -49 -24 -68 -29 -135 -28 -126 0 -211 49 -260 150 -38 78 -40 200 -4 280
28 62 94 124 154 146 62 22 156 20 221 -5z"/>
<path d="M7851 1857 c-8 -11 -11 -102 -9 -333 3 -311 3 -319 23 -319 19 0 20
8 25 290 l5 289 113 -139 c387 -477 364 -450 385 -442 16 6 17 34 15 334 -3
284 -5 328 -18 328 -13 0 -15 -40 -18 -288 -1 -168 -6 -287 -11 -285 -5 2
-114 131 -243 287 -128 157 -238 286 -244 288 -6 2 -16 -3 -23 -10z"/>
<path d="M8571 1856 c-8 -9 -11 -105 -9 -332 3 -311 3 -319 23 -319 19 0 20 8
25 289 l5 289 174 -214 c295 -361 302 -369 322 -369 19 0 19 10 17 333 -3 287
-5 332 -18 332 -13 0 -15 -40 -18 -288 -1 -159 -6 -287 -11 -285 -5 2 -104
120 -221 263 -277 340 -267 328 -289 301z"/>
<path d="M10140 1861 c-194 -59 -285 -263 -209 -467 28 -73 79 -128 156 -166
59 -29 77 -33 148 -33 105 0 174 24 237 83 26 25 48 51 48 58 0 29 -24 24 -63
-14 -62 -60 -125 -85 -216 -84 -91 0 -149 22 -204 78 -47 47 -60 72 -77 143
-26 109 13 238 92 305 58 50 124 70 212 64 82 -6 124 -24 183 -81 31 -30 46
-38 54 -30 30 30 -42 101 -136 134 -56 20 -175 25 -225 10z"/>
<path d="M11262 1858 c-14 -14 -17 -624 -3 -647 5 -8 16 -11 25 -8 15 6 16 40
14 333 -3 324 -6 352 -36 322z"/>
<path d="M11463 1863 c-10 -4 -13 -80 -13 -334 0 -322 0 -329 20 -329 11 0 21
1 22 3 1 1 4 132 7 290 l6 288 205 -253 c255 -314 272 -333 294 -325 15 6 16
36 14 334 -3 284 -5 328 -18 328 -13 0 -16 -40 -20 -283 -3 -155 -8 -283 -12
-285 -9 -3 -21 11 -408 487 -66 81 -75 88 -97 79z"/>
<path d="M12380 1861 c-167 -54 -259 -210 -230 -389 20 -119 81 -200 190 -251
74 -35 208 -36 285 -2 91 40 153 117 175 216 19 85 17 86 -128 83 -105 -3
-127 -6 -127 -18 0 -12 20 -16 109 -18 l108 -3 -7 -36 c-24 -128 -129 -207
-275 -206 -136 1 -230 69 -270 194 -54 168 27 341 179 386 108 31 227 5 296
-66 17 -17 38 -31 48 -31 51 -1 -22 87 -103 124 -49 22 -204 32 -250 17z"/>
<path d="M13151 1857 c-14 -14 -15 -356 -1 -439 25 -154 108 -222 270 -223
132 0 204 39 249 134 25 55 26 62 29 290 4 239 0 268 -33 241 -13 -10 -15 -46
-15 -229 0 -120 -5 -233 -11 -254 -13 -48 -62 -103 -108 -124 -49 -21 -164
-20 -219 2 -23 9 -53 30 -67 47 -46 54 -55 112 -55 344 0 171 -3 213 -14 217
-7 3 -19 0 -25 -6z"/>
<path d="M13847 1863 c-4 -3 -7 -154 -7 -335 0 -321 0 -328 20 -328 20 0 20 7
20 291 0 175 4 289 9 287 5 -1 54 -57 108 -124 54 -67 116 -143 138 -170 22
-27 82 -101 134 -164 143 -174 135 -185 139 211 2 277 0 328 -12 332 -32 12
-36 -19 -38 -299 l-3 -279 -220 270 c-266 327 -268 329 -288 308z"/>
<path d="M14567 1864 c-4 -4 -7 -152 -7 -330 0 -284 2 -323 16 -328 9 -3 120
-6 249 -6 184 0 235 3 244 14 25 30 -12 36 -240 38 l-224 3 -5 304 c-5 289 -9
329 -33 305z"/>
<path d="M15172 1861 c-9 -6 -12 -83 -10 -332 3 -316 3 -324 23 -324 20 0 20
8 23 321 2 254 0 324 -11 332 -7 6 -18 7 -25 3z"/>
<path d="M15373 1863 c-10 -4 -13 -80 -13 -334 0 -322 0 -329 20 -329 20 0 20
7 20 285 0 157 3 285 8 285 4 0 36 -46 72 -103 151 -239 211 -327 225 -327 8
0 36 34 62 75 27 42 90 140 140 218 l93 142 0 -272 c0 -149 3 -278 6 -287 3
-9 15 -16 25 -16 18 0 19 13 19 329 0 299 -2 329 -17 335 -9 4 -23 0 -32 -9
-9 -8 -77 -110 -151 -227 -74 -116 -139 -213 -145 -214 -5 -2 -64 83 -130 188
-136 215 -172 268 -183 267 -4 0 -13 -3 -19 -6z"/>
<path d="M16212 1861 c-9 -6 -12 -83 -10 -332 3 -316 3 -324 23 -324 20 0 20
8 23 321 2 254 0 324 -11 332 -7 6 -18 7 -25 3z"/>
<path d="M9286 1844 c-3 -9 -6 -152 -6 -318 0 -222 3 -305 12 -314 18 -18 501
-17 517 1 26 32 -8 37 -246 37 l-233 0 0 130 0 130 193 0 c105 0 198 4 206 9
8 5 11 16 8 25 -6 14 -32 16 -207 16 l-200 0 0 130 0 130 239 0 c196 0 240 3
244 14 3 8 3 17 0 20 -4 3 -122 6 -264 6 -225 0 -258 -2 -263 -16z"/>
<path d="M10570 1840 c0 -18 8 -20 138 -22 l137 -3 3 -307 c2 -300 3 -308 22
-308 20 0 20 7 20 310 l0 309 138 3 c114 3 137 6 137 18 0 13 -41 15 -297 18
-292 2 -298 2 -298 -18z"/>
<path d="M16335 1850 c-15 -24 12 -30 141 -30 l134 0 0 -305 c0 -271 2 -306
16 -312 9 -3 20 0 25 8 5 8 9 148 9 312 l0 297 135 0 c128 0 135 1 135 20 0
20 -7 20 -294 20 -186 0 -297 -4 -301 -10z"/>
<path d="M17020 1536 c0 -286 2 -325 16 -330 20 -8 478 -8 498 0 9 3 16 12 16
19 0 7 -7 16 -16 19 -9 3 -119 6 -245 6 l-229 0 0 130 0 130 191 0 c196 0 242
7 218 36 -9 11 -50 14 -210 14 l-199 0 0 130 0 130 243 2 c207 3 242 5 242 18
0 13 -37 15 -262 18 l-263 2 0 -324z"/>
<path d="M17666 1845 c-3 -9 -6 -153 -6 -319 0 -222 3 -305 12 -314 15 -15
227 -16 317 -2 114 19 201 81 242 173 20 44 24 67 23 152 -1 108 -10 139 -63
212 -21 29 -50 51 -98 75 l-67 33 -177 3 c-157 3 -177 2 -183 -13z m397 -59
c106 -52 154 -146 144 -282 -6 -81 -24 -123 -75 -177 -59 -61 -118 -77 -282
-77 l-140 0 0 286 0 286 148 -4 c137 -4 153 -6 205 -32z"/>
</g>
</svg>
